<svg xmlns="http://www.w3.org/2000/svg" xmlns:xlink="http://www.w3.org/1999/xlink" width="500" zoomAndPan="magnify" viewBox="0 0 375 374.999991" height="500" preserveAspectRatio="xMidYMid meet" version="1.0"><defs><g/><clipPath id="c082ef31ce"><rect x="0" width="300" y="0" height="185"/></clipPath><clipPath id="5cebe359ff"><rect x="0" width="340" y="0" height="204"/></clipPath><clipPath id="17298089d1"><path d="M 9.371094 9.136719 L 39.734375 9.136719 L 39.734375 39.503906 L 9.371094 39.503906 Z M 9.371094 9.136719 " clip-rule="nonzero"/></clipPath><clipPath id="de7fead533"><path d="M 24.554688 9.136719 C 16.167969 9.136719 9.371094 15.933594 9.371094 24.320312 C 9.371094 32.707031 16.167969 39.503906 24.554688 39.503906 C 32.9375 39.503906 39.734375 32.707031 39.734375 24.320312 C 39.734375 15.933594 32.9375 9.136719 24.554688 9.136719 Z M 24.554688 9.136719 " clip-rule="nonzero"/></clipPath><clipPath id="5d4eec97f1"><path d="M 11.273438 47.839844 L 39.742188 47.839844 L 39.742188 80.210938 L 11.273438 80.210938 Z M 11.273438 47.839844 " clip-rule="nonzero"/></clipPath><clipPath id="c975192c61"><path d="M 39.742188 64.105469 L 11.273438 80.375 L 11.273438 47.839844 Z M 39.742188 64.105469 " clip-rule="nonzero"/></clipPath><clipPath id="f28bd2685b"><path d="M 11.269531 90.507812 L 39.738281 90.507812 L 39.738281 118.976562 L 11.269531 118.976562 Z M 11.269531 90.507812 " clip-rule="nonzero"/></clipPath><clipPath id="16ff8cf663"><rect x="0" width="50" y="0" height="128"/></clipPath></defs><g transform="matrix(1, 0, 0, 1, 18, 39)"><g clip-path="url(#c082ef31ce)"><g fill="#fafafa" fill-opacity="1"><g transform="translate(1.13016, 137.756294)"><g><path d="M 35.640625 -109.59375 L 35.640625 -33.109375 L 68.46875 -33.109375 L 68.46875 -0.296875 L 2.8125 -0.296875 L 2.8125 -109.59375 Z M 35.640625 -109.59375 "/></g></g></g><g fill="#fafafa" fill-opacity="1"><g transform="translate(71.371751, 137.756294)"><g><path d="M 73.953125 -109.59375 L 73.953125 -0.296875 L 2.8125 -0.296875 L 2.8125 -109.59375 Z M 41.140625 -76.78125 L 35.640625 -76.78125 L 35.640625 -33.109375 L 41.140625 -33.109375 Z M 41.140625 -76.78125 "/></g></g></g><g fill="#fafafa" fill-opacity="1"><g transform="translate(147.107386, 137.756294)"><g><path d="M 73.953125 -109.59375 L 73.953125 -0.296875 L 2.8125 -0.296875 L 2.8125 -109.59375 Z M 41.140625 -76.78125 L 35.640625 -76.78125 L 35.640625 -33.109375 L 41.140625 -33.109375 Z M 41.140625 -76.78125 "/></g></g></g><g fill="#fafafa" fill-opacity="1"><g transform="translate(222.843022, 137.756294)"><g><path d="M 54.796875 -76.78125 L 54.796875 -0.296875 L 21.984375 -0.296875 L 21.984375 -76.78125 L 2.8125 -76.78125 L 2.8125 -109.59375 L 73.953125 -109.59375 L 73.953125 -76.78125 Z M 54.796875 -76.78125 "/></g></g></g></g></g><g transform="matrix(1, 0, 0, 1, 18, 154)"><g clip-path="url(#5cebe359ff)"><g fill="#a8a8a8" fill-opacity="1"><g transform="translate(0.794257, 152.873435)"><g><path d="M 51.296875 -48.125 L 45.125 -48.125 L 45.125 -77.96875 L 87.15625 -77.96875 L 87.15625 -0.3125 L 3.09375 -0.3125 L 3.09375 -120 L 81.0625 -120 L 81.0625 -84.0625 L 39.015625 -84.0625 L 39.015625 -42.03125 L 51.296875 -42.03125 Z M 51.296875 -48.125 "/></g></g></g><g fill="#a8a8a8" fill-opacity="1"><g transform="translate(89.893904, 152.873435)"><g><path d="M 81.0625 -77.96875 L 81.0625 -42.03125 L 39.015625 -42.03125 L 39.015625 -36.25 L 81.0625 -36.25 L 81.0625 -0.3125 L 3.09375 -0.3125 L 3.09375 -120 L 81.0625 -120 L 81.0625 -84.0625 L 39.015625 -84.0625 L 39.015625 -77.96875 Z M 81.0625 -77.96875 "/></g></g></g><g fill="#a8a8a8" fill-opacity="1"><g transform="translate(172.898766, 152.873435)"><g><path d="M 81.0625 -77.96875 L 81.0625 -42.03125 L 39.015625 -42.03125 L 39.015625 -36.25 L 81.0625 -36.25 L 81.0625 -0.3125 L 3.09375 -0.3125 L 3.09375 -120 L 81.0625 -120 L 81.0625 -84.0625 L 39.015625 -84.0625 L 39.015625 -77.96875 Z M 81.0625 -77.96875 "/></g></g></g><g fill="#a8a8a8" fill-opacity="1"><g transform="translate(255.903629, 152.873435)"><g><path d="M 81.0625 -78.28125 L 63 -60.078125 L 81.0625 -42.03125 L 81.0625 -0.15625 L 45.125 -0.15625 L 45.125 -42.03125 L 39.015625 -42.03125 L 39.015625 -0.3125 L 3.09375 -0.3125 L 3.09375 -120 L 39.015625 -120 L 39.015625 -77.96875 L 45.125 -77.96875 L 45.125 -120 L 81.0625 -120 Z M 81.0625 -78.28125 "/></g></g></g></g></g><g transform="matrix(1, 0, 0, 1, 314, 58)"><g clip-path="url(#16ff8cf663)"><g clip-path="url(#17298089d1)"><g clip-path="url(#de7fead533)"><path stroke-linecap="butt" transform="matrix(0.899316, 0, 0, 0.899316, 9.369895, 9.137095)" fill="none" stroke-linejoin="miter" d="M 16.88483 -0.000418586 C 7.559163 -0.000418586 0.00133249 7.557412 0.00133249 16.883079 C 0.00133249 26.208747 7.559163 33.766577 16.88483 33.766577 C 26.206154 33.766577 33.763984 26.208747 33.763984 16.883079 C 33.763984 7.557412 26.206154 -0.000418586 16.88483 -0.000418586 Z M 16.88483 -0.000418586 " stroke="#e4e2dd" stroke-width="5.003805" stroke-opacity="1" stroke-miterlimit="4"/></g></g><g clip-path="url(#5d4eec97f1)"><g clip-path="url(#c975192c61)"><path stroke-linecap="butt" transform="matrix(0, 0.899315, -0.899315, 0, 39.740763, 47.838169)" fill="none" stroke-linejoin="miter" d="M 18.088536 -0.00158448 L 36.179553 31.654437 L 0.00186219 31.654437 Z M 18.088536 -0.00158448 " stroke="#e4e2dd" stroke-width="5.003805" stroke-opacity="1" stroke-miterlimit="4"/></g></g><g clip-path="url(#f28bd2685b)"><path stroke-linecap="butt" transform="matrix(0.899316, 0, 0, 0.899316, 11.268626, 90.506141)" fill="none" stroke-linejoin="miter" d="M 0.00100684 0.00185814 L 31.65702 0.00185814 L 31.65702 31.657872 L 0.00100684 31.657872 Z M 0.00100684 0.00185814 " stroke="#e4e2dd" stroke-width="5.003805" stroke-opacity="1" stroke-miterlimit="4"/></g></g></g></svg>